<svg width="3524" height="504" xmlns="http://www.w3.org/2000/svg" xmlns:xlink="http://www.w3.org/1999/xlink" xml:space="preserve" overflow="hidden"><g transform="translate(339 -618)"><g><path d="M357.5 757.001C357.5 730.215 379.215 708.5 406.001 708.5L1367 708.5C1393.79 708.5 1415.5 730.215 1415.5 757.001L1415.5 950.999C1415.5 977.785 1393.79 999.5 1367 999.5L406.001 999.5C379.215 999.5 357.5 977.785 357.5 950.999Z" stroke="#434343" stroke-width="3.4375" stroke-linecap="butt" stroke-linejoin="round" stroke-miterlimit="10" stroke-opacity="1" fill="#D9D9D9" fill-rule="evenodd" fill-opacity="0.501961"/><path d="M743 845.334C743 835.761 750.76 828 760.333 828L1050.67 828C1060.24 828 1068 835.761 1068 845.334L1068 914.666C1068 924.239 1060.24 932 1050.67 932L760.333 932C750.76 932 743 924.239 743 914.666Z" fill="#EA5153" fill-rule="evenodd" fill-opacity="0.301961"/><path d="M365 840.167C365 830.134 373.134 822 383.167 822L718.833 822C728.866 822 737 830.134 737 840.167L737 912.833C737 922.866 728.866 931 718.833 931L383.167 931C373.134 931 365 922.866 365 912.833Z" fill="#212C52" fill-rule="evenodd" fill-opacity="0.301961"/><path d="M1078 845.334C1078 835.761 1085.76 828 1095.33 828L1388.67 828C1398.24 828 1406 835.761 1406 845.334L1406 914.666C1406 924.239 1398.24 932 1388.67 932L1095.33 932C1085.76 932 1078 924.239 1078 914.666Z" fill="#00B050" fill-rule="evenodd" fill-opacity="0.301961"/><path d="M2015 835.334C2015 825.761 2022.76 818 2032.33 818L2611.67 818C2621.24 818 2629 825.761 2629 835.334L2629 904.666C2629 914.239 2621.24 922 2611.67 922L2032.33 922C2022.76 922 2015 914.239 2015 904.666Z" fill="#FFC000" fill-rule="evenodd" fill-opacity="0.301961"/><text fill="#FFFFFF" fill-opacity="1" font-family="Arial,Arial_MSFontService,sans-serif" font-style="normal" font-variant="normal" font-weight="400" font-stretch="normal" font-size="64" text-anchor="start" direction="ltr" writing-mode="lr-tb" unicode-bidi="normal" text-decoration="none" transform="matrix(1 0 0 1 2313.19 894)">.</text><text fill="#000000" fill-opacity="1" font-family="Times New Roman,Times New Roman_MSFontService,sans-serif" font-style="normal" font-variant="normal" font-weight="400" font-stretch="normal" font-size="46" text-anchor="start" direction="ltr" writing-mode="lr-tb" unicode-bidi="normal" text-decoration="none" transform="matrix(1 0 0 1 466.634 812)">Doer</text><text fill="#000000" fill-opacity="1" font-family="Times New Roman,Times New Roman_MSFontService,sans-serif" font-style="normal" font-variant="normal" font-weight="400" font-stretch="normal" font-size="50" text-anchor="start" direction="ltr" writing-mode="lr-tb" unicode-bidi="normal" text-decoration="none" transform="matrix(1 0 0 1 777.773 823)">Action</text><text fill="#000000" fill-opacity="1" font-family="Times New Roman,Times New Roman_MSFontService,sans-serif" font-style="normal" font-variant="normal" font-weight="400" font-stretch="normal" font-size="50" text-anchor="start" direction="ltr" writing-mode="lr-tb" unicode-bidi="normal" text-decoration="none" transform="matrix(1 0 0 1 1125.3 819)">Receiver</text><text fill="#000000" fill-opacity="1" font-family="Times New Roman,Times New Roman_MSFontService,sans-serif" font-style="normal" font-variant="normal" font-weight="400" font-stretch="normal" font-size="55" text-anchor="start" direction="ltr" writing-mode="lr-tb" unicode-bidi="normal" text-decoration="none" transform="matrix(1 0 0 1 2287.12 803)">DP</text><text fill="#000000" fill-opacity="1" font-family="Times New Roman,Times New Roman_MSFontService,sans-serif" font-style="normal" font-variant="normal" font-weight="400" font-stretch="normal" font-size="55" text-anchor="start" direction="ltr" writing-mode="lr-tb" unicode-bidi="normal" text-decoration="none" transform="matrix(1 0 0 1 851.379 692)">FR</text><text fill="#000000" fill-opacity="1" font-family="Times New Roman,Times New Roman_MSFontService,sans-serif" font-style="normal" font-variant="normal" font-weight="400" font-stretch="normal" font-size="55" text-anchor="start" direction="ltr" writing-mode="lr-tb" unicode-bidi="normal" text-decoration="none" transform="matrix(1 0 0 1 1457.73 1076)">AXR</text><path d="M2324.74 922.703 2324.48 924.871C2324.47 924.998 2324.44 925.122 2324.39 925.242L2323.63 927.409C2323.59 927.511 2323.54 927.61 2323.49 927.704L2322.22 929.869C2322.17 929.945 2322.12 930.017 2322.07 930.086L2320.3 932.247 2317.91 934.557 2315.05 936.817 2311.74 939.04 2307.99 941.234 2303.8 943.406 2299.17 945.558 2294.11 947.692 2288.64 949.809 2282.74 951.91 2276.44 953.993 2269.74 956.06 2262.64 958.109 2255.16 960.14 2247.3 962.152 2230.48 966.112 2212.24 969.989 2192.63 973.77 2171.74 977.448 2149.61 981.015 2126.32 984.463 2101.93 987.784 2076.51 990.968 2050.11 994.008 2022.8 996.896 1994.66 999.622 1965.73 1002.18 1936.1 1004.56 1905.81 1006.75 1874.94 1008.75 1843.56 1010.54 1811.72 1012.13 1779.49 1013.49 1746.93 1014.62 1681.12 1016.17 1614.78 1016.7 1548.44 1016.23 1482.62 1014.85 1450.06 1013.83 1417.84 1012.62 1386 1011.21 1354.61 1009.61 1323.75 1007.83 1293.46 1005.87 1263.83 1003.75 1234.91 1001.47 1206.76 999.035 1179.46 996.46 1153.07 993.748 1127.64 990.908 1103.26 987.946 1079.97 984.871 1057.85 981.69 1036.96 978.41 1017.36 975.038 999.122 971.583 982.305 968.05 974.44 966.254 966.962 964.444 959.871 962.618 953.175 960.777 946.88 958.92 940.995 957.05 935.526 955.166 930.481 953.268C930.374 953.228 930.271 953.177 930.174 953.116L923.12 948.694 924.946 945.781 931.999 950.203 931.692 950.051 936.646 951.916 942.036 953.774 947.852 955.623 954.086 957.462 960.729 959.289 967.771 961.103 975.205 962.903 983.012 964.686 999.763 968.205 1017.94 971.65 1037.49 975.014 1058.34 978.287 1080.42 981.463 1103.67 984.534 1128.02 987.491 1153.42 990.328 1179.78 993.037 1207.06 995.611 1235.18 998.04 1264.07 1000.32 1293.68 1002.44 1323.94 1004.39 1354.79 1006.17 1386.15 1007.77 1417.97 1009.18 1450.17 1010.4 1482.69 1011.41 1548.46 1012.79 1614.75 1013.26 1681.04 1012.73 1746.81 1011.19 1779.34 1010.05 1811.55 1008.69 1843.36 1007.11 1874.72 1005.32 1905.56 1003.32 1935.82 1001.13 1965.43 998.755 1994.33 996.201 2022.44 993.478 2049.71 990.594 2076.08 987.557 2101.47 984.378 2125.82 981.063 2149.06 977.622 2171.14 974.063 2191.98 970.395 2211.52 966.626 2229.7 962.766 2246.45 958.822 2254.26 956.823 2261.69 954.807 2268.73 952.775 2275.36 950.73 2281.59 948.671 2287.4 946.602 2292.78 944.525 2297.72 942.44 2302.22 940.353 2306.26 938.266 2309.83 936.185 2312.92 934.117 2315.53 932.075 2317.64 930.072 2319.4 927.911 2319.25 928.128 2320.52 925.963 2320.39 926.259 2321.15 924.093 2321.07 924.464 2321.33 922.297ZM918.685 960.709 906.5 932.481 936.394 939.669Z" fill="#434343" fill-rule="nonzero" fill-opacity="1"/><path d="M0.114171 1.71495-3.75176 1.97232-7.3916 2.70488-11.0364 3.90217-14.6825 5.55508-18.323 7.654-21.9487 10.1879-25.5494 13.1442-29.1143 16.5089-32.6331 20.2669-36.0957 24.4027-42.836 33.774-49.2121 44.425-55.1846 56.2584-60.6873 69.1412-65.6559 82.9408-70.0276 97.5248-73.7403 112.761-76.7328 128.518-78.9442 144.664-80.3139 161.067-80.7819 177.596-80.276 194.118-78.8071 210.511-76.4391 226.648-73.2362 242.398-69.2631 257.629-64.5848 272.211-59.2667 286.01-53.3751 298.896-46.9771 310.736-40.141 321.397-32.9373 330.747-29.2498 334.856-25.4737 338.619-21.6444 341.99-21.9768 341.76-14.9397 345.485-16.5477 348.523-23.5848 344.798C-23.7043 344.735-23.8159 344.658-23.9173 344.569L-27.9016 341.053-31.81 337.149-35.6615 332.843-43.0354 323.251-50.0017 312.369-56.5017 300.325-62.4745 287.246-67.8581 273.261-72.5894 258.496-76.6049 243.082-79.8402 227.146-82.2309 210.817-83.7119 194.223-84.218 177.498-83.7394 160.78-82.3498 144.197-80.1098 127.876-77.08 111.947-73.3202 96.5372-68.89 81.7756-63.8482 67.7902-58.2529 54.7085-52.1606 42.658-45.6259 31.7658-38.7303 22.1947-35.1409 17.9158-31.4716 14.007-27.7277 10.485-23.9137 7.36739-20.0341 4.67264-16.0939 2.42067-12.0988 0.632952-8.05701-0.667601-3.9801-1.45758-0.114171-1.71495ZM-15.1778 332.521 5.69741 355.094-24.8861 358.25Z" fill="#434343" fill-rule="nonzero" fill-opacity="1" transform="matrix(1.83697e-16 1 1 -1.83697e-16 592.5 816.5)"/><path d="M951.786 820.712 952.073 816.783 952.958 812.624 954.415 808.504 956.415 804.437 958.932 800.431 961.942 796.489 965.422 792.617 969.352 788.817 973.714 785.093 978.487 781.451 983.655 777.895 989.2 774.432 1001.32 767.82 1014.77 761.637 1029.37 755.958 1044.98 750.841 1061.45 746.343 1078.65 742.527 1096.43 739.451 1114.64 737.178 1133.15 735.767 1151.81 735.282 1170.47 735.755 1188.98 737.139 1207.2 739.373 1224.98 742.395 1242.17 746.147 1258.65 750.567 1274.25 755.596 1288.84 761.176 1302.27 767.248 1314.41 773.754 1319.98 777.172 1325.14 780.663 1329.91 784.238 1334.27 787.89 1338.19 791.615C1338.31 791.723 1338.41 791.845 1338.49 791.98L1342 797.851 1339.04 799.614 1335.54 793.743 1335.83 794.108 1332.06 790.524 1327.85 786.988 1323.22 783.51 1318.18 780.101 1312.79 776.784 1300.86 770.38 1287.61 764.387 1273.19 758.868 1257.75 753.887 1241.44 749.505 1224.4 745.784 1206.78 742.785 1188.72 740.567 1170.38 739.192 1151.9 738.718 1133.41 739.195 1115.07 740.589 1097.01 742.838 1079.39 745.883 1062.36 749.66 1046.05 754.107 1030.61 759.162 1016.2 764.761 1002.97 770.839 991.021 777.347 985.603 780.728 980.571 784.185 975.944 787.709 971.74 791.29 967.977 794.917 964.671 798.58 961.839 802.265 959.496 805.962 957.652 809.661 956.318 813.352 955.502 817.034 955.214 820.963ZM1351.04 788.765 1350.21 819.5 1326.12 800.393Z" fill="#434343" fill-rule="nonzero" fill-opacity="1"/><text fill="#434343" fill-opacity="1" font-family="Times New Roman,Times New Roman_MSFontService,sans-serif" font-style="normal" font-variant="normal" font-weight="400" font-stretch="normal" font-size="92" text-anchor="start" direction="ltr" writing-mode="lr-tb" unicode-bidi="normal" text-decoration="none" transform="matrix(1 0 0 1 201.837 902)">The face mask captures particles according to the filter’s pore size. </text></g></g></svg>