<svg width="1016" height="151" xmlns="http://www.w3.org/2000/svg" xmlns:xlink="http://www.w3.org/1999/xlink" xml:space="preserve" overflow="hidden"><g transform="translate(28 -194)"><g><g><g><g><path d="M48.6842 214.584C48.6842 206.893 54.919 200.658 62.6099 200.658L301.864 200.658C309.555 200.658 315.789 206.893 315.789 214.584L315.789 270.285C315.789 277.976 309.555 284.211 301.864 284.211L62.6099 284.211C54.919 284.211 48.6842 277.976 48.6842 270.285Z" stroke="#434343" stroke-width="0.986842" stroke-linecap="butt" stroke-linejoin="round" stroke-miterlimit="10" stroke-opacity="1" fill="#D9D9D9" fill-rule="evenodd" fill-opacity="0.501961" transform="matrix(1.00542 0 0 1 3.75 21.3158)"/><path d="M123.026 240.461C123.026 237.736 125.236 235.526 127.961 235.526L204.934 235.526C207.659 235.526 209.868 237.736 209.868 240.461L209.868 260.197C209.868 262.922 207.659 265.132 204.934 265.132L127.961 265.132C125.236 265.132 123.026 262.922 123.026 260.197Z" fill="#EA5153" fill-rule="evenodd" fill-opacity="0.301961" transform="matrix(1.00542 0 0 1 3.75 21.3158)"/><path d="M50.6579 240.022C50.6579 237.176 52.9653 234.868 55.8115 234.868L113.268 234.868C116.114 234.868 118.421 237.176 118.421 240.022L118.421 260.636C118.421 263.482 116.114 265.789 113.268 265.789L55.8115 265.789C52.9653 265.789 50.6579 263.482 50.6579 260.636Z" fill="#212C52" fill-rule="evenodd" fill-opacity="0.301961" transform="matrix(1.00542 0 0 1 3.75 21.3158)"/><path d="M251.316 240.461C251.316 237.736 253.525 235.526 256.25 235.526L308.224 235.526C310.949 235.526 313.158 237.736 313.158 240.461L313.158 260.197C313.158 262.922 310.949 265.132 308.224 265.132L256.25 265.132C253.525 265.132 251.316 262.922 251.316 260.197Z" fill="#00B050" fill-rule="evenodd" fill-opacity="0.301961" transform="matrix(1.00542 0 0 1 3.75 21.3158)"/><path d="M469.737 239.803C469.737 237.078 471.946 234.868 474.671 234.868L929.276 234.868C932 234.868 934.211 237.078 934.211 239.803L934.211 259.539C934.211 262.264 932 264.474 929.276 264.474L474.671 264.474C471.946 264.474 469.737 262.264 469.737 259.539Z" fill="#FFC000" fill-rule="evenodd" fill-opacity="0.301961" transform="matrix(1.00542 0 0 1 3.75 21.3158)"/><text fill="#FFFFFF" fill-opacity="1" font-family="Arial,Arial_MSFontService,sans-serif" font-style="normal" font-variant="normal" font-weight="400" font-stretch="normal" font-size="28" text-anchor="start" direction="ltr" writing-mode="lr-tb" unicode-bidi="normal" text-decoration="none" transform="matrix(0.661458 0 0 0.657895 706.999 279)">.</text><path d="M0.0645112 0.489186-2.15299 0.781618-2.03925 0.752533-4.2394 1.60494-4.15316 1.56138-6.31862 2.93644-6.2571 2.89027-8.37053 4.75064-10.3712 7.01572-12.2974 9.69592-14.1279 12.7536-15.8425 16.1507-17.4222 19.8491-18.8486 23.8107-21.1726 32.3839-22.6653 41.5428-23.0566 46.2393-23.191 50.9845-23.0457 55.7277-22.624 60.4337-21.9442 65.0663-21.0247 69.5882-18.537 78.1599-17.0143 82.1086-15.323 85.8072-13.4862 89.2066-11.5238 92.2671-9.45572 94.9513-7.30322 97.2211-7.39263 97.1467-4.24605 99.1921-4.78383 100.019-7.93039 97.9743C-7.96309 97.9533-7.99309 97.9283-8.01987 97.9L-10.2378 95.5533-12.3547 92.7993-14.3545 89.6757-16.2206 86.2178-17.9353 82.4632-19.4848 78.4349-21.9918 69.7842-22.9207 65.2094-23.607 60.5216-24.0321 55.7577-24.1774 50.9564-24.04 46.157-23.6392 41.3838-22.1251 32.1255-19.777 23.4762-18.3296 19.4613-16.7233 15.7058-14.9743 12.2463-13.0984 9.11934-11.11 6.36151-9.02257 4.0099-6.90914 2.14953C-6.88987 2.13255-6.86934 2.11714-6.84763 2.10336L-4.68216 0.728303C-4.65491 0.711-4.62601 0.696408-4.59591 0.684743L-2.39576-0.167664C-2.35914-0.181852-2.32095-0.191618-2.28201-0.196753L-0.0645112-0.489186ZM-4.34393 95.448 1.63562 101.941-7.14618 102.829Z" fill="#434343" fill-rule="nonzero" fill-opacity="1" transform="matrix(1.84692e-16 1 1.00542 -1.83697e-16 88.4167 256.184)"/><path d="M185.696 236.497 186.022 234.244C186.029 234.202 186.04 234.161 186.057 234.121L187.009 231.886C187.022 231.854 187.039 231.824 187.059 231.797L188.595 229.596C188.61 229.574 188.626 229.554 188.645 229.535L190.723 227.387 193.347 225.269 196.424 223.251 199.913 221.348 203.773 219.573 207.964 217.943 212.445 216.474 217.175 215.182 222.112 214.087 227.216 213.204 232.446 212.551 237.759 212.146 243.115 212.007 248.472 212.143 253.786 212.54 264.109 214.047 269.057 215.126 273.786 216.395 278.265 217.839 282.453 219.44 286.311 221.184 289.795 223.051 292.867 225.029 295.485 227.101C295.517 227.126 295.546 227.156 295.571 227.189L297.661 229.934 296.876 230.532 294.786 227.787 294.872 227.874 292.332 225.859 289.329 223.921 285.904 222.083 282.101 220.362 277.962 218.778 273.53 217.348 268.847 216.09 263.966 215.024 253.712 213.524 248.447 213.129 243.141 212.993 237.834 213.13 232.568 213.53 227.384 214.176 222.326 215.05 217.434 216.134 212.753 217.411 208.322 218.862 204.186 220.47 200.386 222.214 196.964 224.077 193.966 226.037 191.432 228.074 189.354 230.222 189.404 230.161 187.868 232.361 187.917 232.272 186.965 234.508 186.999 234.386 186.672 236.639ZM300.278 227.36 300.072 236.184 293.137 230.725Z" fill="#434343" fill-rule="nonzero" fill-opacity="1" transform="matrix(1.00542 0 0 1 3.75 21.3158)"/><text fill="#000000" fill-opacity="1" font-family="Times New Roman,Times New Roman_MSFontService,sans-serif" font-style="normal" font-variant="normal" font-weight="400" font-stretch="normal" font-size="20" text-anchor="start" direction="ltr" writing-mode="lr-tb" unicode-bidi="normal" text-decoration="none" transform="matrix(0.661458 0 0 0.657895 59.5397 254)">Doer</text><text fill="#000000" fill-opacity="1" font-family="Times New Roman,Times New Roman_MSFontService,sans-serif" font-style="normal" font-variant="normal" font-weight="400" font-stretch="normal" font-size="22" text-anchor="start" direction="ltr" writing-mode="lr-tb" unicode-bidi="normal" text-decoration="none" transform="matrix(0.661458 0 0 0.657895 135.95 254)">Action</text><text fill="#000000" fill-opacity="1" font-family="Times New Roman,Times New Roman_MSFontService,sans-serif" font-style="normal" font-variant="normal" font-weight="400" font-stretch="normal" font-size="22" text-anchor="start" direction="ltr" writing-mode="lr-tb" unicode-bidi="normal" text-decoration="none" transform="matrix(0.661458 0 0 0.657895 238.609 254)">Receiver</text><text fill="#000000" fill-opacity="1" font-family="Times New Roman,Times New Roman_MSFontService,sans-serif" font-style="normal" font-variant="normal" font-weight="400" font-stretch="normal" font-size="24" text-anchor="start" direction="ltr" writing-mode="lr-tb" unicode-bidi="normal" text-decoration="none" transform="matrix(0.661458 0 0 0.657895 765.38 252)">DP</text><text fill="#000000" fill-opacity="1" font-family="Times New Roman,Times New Roman_MSFontService,sans-serif" font-style="normal" font-variant="normal" font-weight="400" font-stretch="normal" font-size="24" text-anchor="start" direction="ltr" writing-mode="lr-tb" unicode-bidi="normal" text-decoration="none" transform="matrix(0.661458 0 0 0.657895 177.655 215)">FR</text><text fill="#000000" fill-opacity="1" font-family="Times New Roman,Times New Roman_MSFontService,sans-serif" font-style="normal" font-variant="normal" font-weight="400" font-stretch="normal" font-size="24" text-anchor="start" direction="ltr" writing-mode="lr-tb" unicode-bidi="normal" text-decoration="none" transform="matrix(0.661458 0 0 0.657895 424.504 331)">AXR</text><path d="M702.461 264.55 702.072 267.023C702.066 267.068 702.053 267.112 702.033 267.155L700.888 269.622C700.868 269.655 700.849 269.686 700.829 269.714L698.947 272.172C698.928 272.193 698.914 272.212 698.895 272.231L696.296 274.674 692.974 277.136 688.993 279.561 684.382 281.949 679.164 284.297 673.362 286.605 667 288.866 660.105 291.078 652.691 293.236 644.79 295.334 636.425 297.37 627.619 299.337 618.397 301.232 608.784 303.049 598.804 304.784 588.48 306.431 577.839 307.987 566.903 309.445 555.699 310.803 532.581 313.193 508.676 315.12 484.184 316.544 459.299 317.428 434.216 317.73 409.135 317.432 384.249 316.56 359.757 315.153 335.852 313.251 312.732 310.89 301.525 309.549 290.589 308.109 279.948 306.573 269.626 304.946 259.645 303.233 250.033 301.439 240.812 299.568 232.007 297.626 223.643 295.616 215.743 293.544 208.333 291.414 201.436 289.232 195.076 286.999 189.278 284.723 184.065 282.407 179.461 280.054 175.488 277.667 172.17 275.249 169.531 272.799C169.488 272.758 169.451 272.71 169.425 272.657L168.764 271.322 169.649 270.885 170.309 272.218 170.203 272.076 172.753 274.452 175.997 276.822 179.91 279.175 184.466 281.505 189.639 283.805 195.403 286.068 201.734 288.291 208.605 290.466 215.993 292.589 223.873 294.657 232.22 296.663 241.008 298.601 250.214 300.469 259.812 302.261 269.779 303.971 280.089 305.596 290.718 307.131 301.642 308.57 312.832 309.909 335.93 312.267 359.813 314.168 384.284 315.574 409.147 316.445 434.205 316.743 459.263 316.441 484.126 315.559 508.597 314.137 532.48 312.212 555.58 309.823 566.773 308.467 577.696 307.01 588.325 305.457 598.635 303.811 608.601 302.079 618.199 300.265 627.404 298.374 636.191 296.411 644.537 294.381 652.415 292.288 659.803 290.138 666.671 287.936 673 285.688 678.763 283.398 683.928 281.072 688.48 278.718 692.388 276.343 695.625 273.956 698.217 271.513 698.164 271.572 700.046 269.114 699.993 269.206 701.138 266.738 701.099 266.87 701.487 264.397ZM166.176 273.954 166.447 265.132 173.342 270.642Z" fill="#434343" fill-rule="nonzero" fill-opacity="1" transform="matrix(1.00542 0 0 1 3.75 21.3158)"/><text fill="#434343" fill-opacity="1" font-family="Times New Roman,Times New Roman_MSFontService,sans-serif" font-style="normal" font-variant="normal" font-weight="400" font-stretch="normal" font-size="40" text-anchor="start" direction="ltr" writing-mode="lr-tb" unicode-bidi="normal" text-decoration="none" transform="matrix(0.661458 0 0 0.657895 10.6648 278)">The motor controls the valve according to a temperature threshold of the cooling system.</text></g></g></g></g></g></svg>